<?xml version="1.0" encoding="utf-8"?>
<!-- Generator: Adobe Illustrator 22.0.1, SVG Export Plug-In . SVG Version: 6.00 Build 0)  -->
<svg version="1.1" id="Layer_1" xmlns="http://www.w3.org/2000/svg" xmlns:xlink="http://www.w3.org/1999/xlink" x="0px" y="0px"
	 viewBox="0 0 128 128" style="enable-background:new 0 0 128 128;" xml:space="preserve">
<style type="text/css">
	.st0{fill:#563D7C;}
	.st1{fill:#FFFFFF;}
</style>
<path class="st0" d="M0,111.5c0,9.1,7.4,16.5,16.5,16.5h95c9.1,0,16.5-7.4,16.5-16.5v-95C128,7.4,120.6,0,111.5,0h-95
	C7.4,0,0,7.4,0,16.5V111.5L0,111.5z"/>
<path class="st1" d="M53.1,56.6V38.5h16c1.5,0,3,0.1,4.4,0.4c1.4,0.3,2.7,0.7,3.7,1.4c1.1,0.7,2,1.6,2.6,2.7c0.7,1.2,1,2.6,1,4.5
	c0,3.3-1,5.6-2.9,7.1c-2,1.4-4.4,2.2-7.5,2.2L53.1,56.6L53.1,56.6z M36,25.2v77.5h37.6c3.5,0,6.9-0.4,10.1-1.3s6.2-2.2,8.8-4
	c2.6-1.8,4.6-4.1,6.1-7c1.5-2.9,2.3-6.2,2.3-10.1c0-4.8-1.2-9-3.5-12.4c-2.4-3.4-5.9-5.8-10.7-7.2c3.5-1.7,6.1-3.8,7.9-6.4
	c1.8-2.6,2.7-5.9,2.7-9.8c0-3.6-0.6-6.7-1.8-9.1c-1.2-2.5-2.9-4.4-5-5.9c-2.2-1.5-4.8-2.6-7.8-3.2c-3-0.7-6.4-1-10.1-1L36,25.2
	L36,25.2z M53.1,89.5V68.2h18.6c3.7,0,6.7,0.8,8.9,2.6c2.2,1.7,3.4,4.5,3.4,8.5c0,2-0.3,3.7-1,5s-1.6,2.3-2.8,3.1
	c-1.2,0.8-2.5,1.3-4,1.6c-1.5,0.3-3.1,0.5-4.8,0.5H53.1L53.1,89.5z"/>
</svg>
