<?xml version="1.0" encoding="utf-8"?>
<!-- Generator: Adobe Illustrator 22.0.1, SVG Export Plug-In . SVG Version: 6.00 Build 0)  -->
<svg version="1.1" id="Layer_1" xmlns="http://www.w3.org/2000/svg" xmlns:xlink="http://www.w3.org/1999/xlink" x="0px" y="0px"
	 viewBox="0 0 128 128" style="enable-background:new 0 0 128 128;" xml:space="preserve">
<style type="text/css">
	.st0{fill:#543729;}
	.st1{fill:#00ACEE;}
	.st2{fill:#2BAF2B;}
	.st3{fill:#FFCC2F;}
	.st4{fill:#CECECE;}
	.st5{fill:#EF5734;}
	.st6{fill:#FFFFFF;}
</style>
<path class="st0" d="M125.6,63.7C119,57.4,86,53.5,75.7,52.3c0.5-1.2,0.9-2.4,1.3-3.7c1.5-0.6,3-1.2,4.5-1.7
	c0.2,0.6,1.1,2.7,1.6,3.8c20.9,0.6,22-15.5,22.8-19.9c0.8-4.3,0.8-8.5,8-16.1c-10.7-3.1-26,4.8-31.2,16.6c-1.9-0.7-3.9-1.3-5.8-1.6
	c-1.4-5.5-8.5-21-27.3-21C25.9,8.8,0,28.4,0,61.5c0,27.9,19,52.3,29.8,52.3c4.7,0,8.7-3.5,9.7-6.7c0.8,2.2,3.2,8.9,4,10.6
	c1.2,2.5,6.7,4.7,9.1,2.1c3.1,1.7,8.7,2.7,11.8-1.8c5.9,1.3,11.2-2.3,11.3-6.5c2.9-0.2,4.3-4.2,3.7-7.5c-0.5-2.4-5.5-11-7.4-14
	c3.9,3.1,13.7,4,14.9,0c6.2,4.9,15.9,2.3,16.7-1.7c7.6,2,16.3-2.4,14.8-7.6C130.5,80,129,67,125.6,63.7L125.6,63.7z"/>
<path class="st1" d="M91.7,36.1c2.6-5.2,5.9-10.9,10.1-14.4C97.2,23.6,92.6,29.1,90,35c-1.3-0.9-2.7-1.6-4.1-2.3
	c3.7-8,12.4-14.6,21.9-15.1c-6.4,5.8-4.1,17.9-9.4,24.2C96.9,40.3,93.4,37.4,91.7,36.1L91.7,36.1z M87.5,44.6c0-0.2,0.1-1.7,0.2-2.4
	c-0.4-0.1-2.6-0.5-3.8-0.5c-0.1,1.5,0.6,4,1.3,5.6c4.9-0.1,8.4-1.6,10.4-2.9c-1.8-0.8-4.8-1.5-7-2C88.4,42.9,87.8,44.2,87.5,44.6
	L87.5,44.6z"/>
<path class="st2" d="M69.5,85.7L69.5,85.7c-0.6-1.3-1.3-2.9-2-5c3,4.4,12.6,2.1,12.1-1.8c4.7,3.5,14.3-0.6,12.1-5.5
	c4.7,2.2,10-2.2,8.8-4.1c8,1.5,15.6,3.1,18,3.7c-1.6,2.6-5.2,4.4-10.7,3.2c3,4-2.8,8.8-10.8,6.2c1.8,3.9-5.4,7.5-13.4,3.4
	C83.6,89.6,73.5,90.1,69.5,85.7L69.5,85.7z M85.3,65.8c9.2,0.7,24.5,2.1,34,3.4c-0.6-3.1-2.2-4-7.4-5.3
	C106.4,64.4,92.4,65.8,85.3,65.8z"/>
<path class="st3" d="M79.5,78.9c4.7,3.5,14.3-0.6,12.1-5.5c4.7,2.2,10-2.2,8.8-4.1c-9.4-1.8-19.3-3.6-21.5-4
	c1.4,0.1,3.6,0.2,6.4,0.4c7.1,0,21.1-1.3,26.6-1.9c-8.9-2.3-27.2-5.6-39.8-6.4c-0.6,0.9-1.7,2.3-3.5,3.8C63,73,53,80.7,42,80.7
	c-3.2,0-6.8-0.5-10.9-1.8c-2.5,2.7-13.3,4.7-22,0.5c6.9,16.2,23,27,40.7,27c15,0,21.6-15.3,20.1-19.3c-0.4-1-1.7-4.2-2.5-6.3
	C70.5,85.1,80,82.9,79.5,78.9L79.5,78.9z"/>
<path class="st4" d="M70.4,48.1c1.3-0.7,5.9-3.5,10.2-4.5c-0.1-0.5-0.1-1-0.2-1.5c-2.9,0.7-8.2,3-11.3-0.2c6.5,2,9.8-1.7,14.5-1.7
	c2.8,0,6.9,0.8,10.1,2.1c-2.6-2.4-11-9.6-21.5-9.6C70,35.5,67.5,41.7,70.4,48.1L70.4,48.1z"/>
<path class="st5" d="M31.1,78.9c4,1.3,7.7,1.8,10.9,1.8C53,80.7,63,73,68.6,61.3c-4.1,3.4-11.2,6.3-22.3,6.3
	c9.9-2.2,18.4-7.2,22.7-14.3c-3-4.8-6.3-15.5,2-24c-1.3-4.1-7.5-15-21.4-15c-24.1,0-44.1,20.2-44.1,47.3c0,6.4,1.3,12.4,3.6,17.8
	C17.8,83.6,28.6,81.6,31.1,78.9L31.1,78.9z"/>
<path class="st3" d="M38.3,37.7c0,6.2,5,11.2,11.2,11.2c6.2,0,11.2-5,11.2-11.2c0-6.2-5-11.2-11.2-11.2
	C43.3,26.5,38.3,31.5,38.3,37.7L38.3,37.7z"/>
<path class="st0" d="M42.8,37.7c0,3.7,3,6.7,6.7,6.7c3.7,0,6.7-3,6.7-6.7s-3-6.7-6.7-6.7C45.8,31,42.8,34,42.8,37.7L42.8,37.7z"/>
<ellipse class="st6" cx="49.5" cy="34.7" rx="3.9" ry="2.4"/>
</svg>
