<?xml version="1.0" encoding="utf-8"?>
<!-- Generator: Adobe Illustrator 22.0.1, SVG Export Plug-In . SVG Version: 6.00 Build 0)  -->
<svg version="1.1" id="Layer_1" xmlns="http://www.w3.org/2000/svg" xmlns:xlink="http://www.w3.org/1999/xlink" x="0px" y="0px"
	 viewBox="0 0 128 128" style="enable-background:new 0 0 128 128;" xml:space="preserve">
<style type="text/css">
	.st0{fill:#0071BC;}
	.st1{fill:#29ABE2;}
	.st2{fill:#B3B3B3;}
	.st3{fill:#E6E6E6;}
	.st4{fill:#FFFFFF;}
</style>
<g>
	<polygon class="st0" points="17.7,115.4 7.4,0.2 120.3,0.2 110,115.4 63.8,128.2 	"/>
	<polygon class="st1" points="63.9,118.4 101.2,108.2 110,9.8 63.9,9.8 	"/>
	<polygon class="st2" points="30.9,52.1 32.2,66.2 63.9,52.1 63.9,38 	"/>
	<polygon class="st3" points="99.1,22.9 63.9,38 63.9,52.1 97.9,37 	"/>
	<polygon class="st3" points="63.9,89.1 63.8,89.1 48.1,84.8 47,73.6 32.9,73.6 34.8,95.8 63.8,103.8 63.9,103.8 	"/>
	<polygon class="st4" points="63.9,52.1 63.9,66.2 81.2,66.2 79.6,84.7 63.9,89.1 63.9,103.8 92.8,95.7 96.6,52.1 	"/>
	<polygon class="st3" points="63.9,52.1 30.9,52.1 32.2,66.2 63.9,66.2 	"/>
	<polygon class="st3" points="63.9,37 63.9,22.9 63.8,22.9 28.4,22.9 29.7,37 	"/>
	<polygon class="st4" points="63.9,22.9 63.9,36.9 63.9,37 97.9,37 99.1,22.9 	"/>
</g>
<g>
</g>
<g>
</g>
<g>
</g>
<g>
</g>
<g>
</g>
<g>
</g>
</svg>
