<?xml version="1.0" encoding="utf-8"?>
<!-- Generator: Adobe Illustrator 22.0.1, SVG Export Plug-In . SVG Version: 6.00 Build 0)  -->
<svg version="1.1" id="Layer_1" xmlns="http://www.w3.org/2000/svg" xmlns:xlink="http://www.w3.org/1999/xlink" x="0px" y="0px"
	 viewBox="0 0 128 128" style="enable-background:new 0 0 128 128;" xml:space="preserve">
<style type="text/css">
	.st0{fill:#DE4C36;}
</style>
<path class="st0" d="M125.6,58.3L69.7,2.4c-3.2-3.2-8.4-3.2-11.7,0L46.4,14l14.7,14.7c3.4-1.2,7.3-0.4,10.1,2.3
	c2.7,2.7,3.5,6.7,2.3,10.1l14.2,14.2c3.4-1.2,7.4-0.4,10.1,2.3c3.8,3.8,3.8,10,0,13.9c-3.8,3.8-10,3.8-13.9,0
	c-2.9-2.9-3.6-7.1-2.1-10.7L68.6,47.7l0,34.8c1,0.5,1.8,1.1,2.6,1.9c3.8,3.8,3.8,10,0,13.9c-3.8,3.8-10,3.8-13.9,0
	c-3.8-3.8-3.8-10,0-13.9c0.9-0.9,2-1.6,3.2-2.1V47.1c-1.2-0.5-2.3-1.2-3.2-2.1c-2.9-2.9-3.6-7.2-2.1-10.7L40.7,19.7L2.4,58
	c-3.2,3.2-3.2,8.4,0,11.7l55.9,55.9c3.2,3.2,8.4,3.2,11.7,0L125.6,70C128.8,66.7,128.8,61.5,125.6,58.3"/>
</svg>
