<?xml version="1.0" encoding="utf-8"?>
<!-- Generator: Adobe Illustrator 22.0.1, SVG Export Plug-In . SVG Version: 6.00 Build 0)  -->
<svg version="1.1" id="Layer_1" xmlns="http://www.w3.org/2000/svg" xmlns:xlink="http://www.w3.org/1999/xlink" x="0px" y="0px"
	 viewBox="0 0 128 128" style="enable-background:new 0 0 128 128;" xml:space="preserve">
<style type="text/css">
	.st0{fill:#88CE02;}
	.st1{fill:#EFEFEF;}
	.st2{fill:#001423;}
	.st3{opacity:0.3;enable-background:new    ;}
	.st4{fill-opacity:0;}
	.st5{opacity:0.4;enable-background:new    ;}
	.st6{fill:#88CE02;stroke:#000000;stroke-width:1.586;stroke-linejoin:round;stroke-miterlimit:10;}
</style>
<g>
	<g>
		<path d="M24.5,56C20.8,57.8,10.9,65.7,9,68c-2,2.3-2.6-1.3-0.5-7.4c1.6-4.9,5.7-11.6,12.6-17.3c4-3.3,12.9-8.1,18.3-10.8
			c1.1-0.6,15.3-6.6,28-9.6c1.1-0.3-1.3,1.8-1.7,3c-1.9,5.6-39.9,29.5-39.9,29.5L24.5,56z"/>
		<path d="M78.1,123.2c0.7,4,0.1,4.2-4,4.8c-4.1,0.5-7.1-1-8.2-2.1c-1.1-1-1.3-3.3-0.2-5.3c0.7-1.3,1.3-1.8,1.7-3.4
			c0.4-1.5,0.7-1.9,1-2.5c0.3-0.5,0.4-1,0.4-4.6c0.1-3.6,0-10.3,0.4-13.2c0.4-2.9,13,1.3,13,1.3s-3,7.5-3.8,9.3
			c-0.8,1.8-0.7,5.3-0.7,6.1s-0.3,2.2-0.5,2.3c-0.2,0.1,0.7,2,0.3,3.1C77.1,120,78,122.6,78.1,123.2z"/>
		<path d="M82.9,11.2c-0.4-2.8,0-8.3,0.6-9.2C85.3-0.5,95-0.8,97.1,2.1c0.9,1.3,0.8,4.4,0.7,6.4c-0.1,2-0.7,6.2-0.7,7.6
			c-0.1,1-10.7,2.6-13-0.1C83.3,15.3,82.9,11.2,82.9,11.2z"/>
		<path d="M104.5,116.1c4.5,3.2,7.9,3.8,10.2,5c2.3,1.2,1.7,3.4-2.1,4.1c-3.1,0.6-7.9-0.6-11.1-0.6c-3.2,0-10.4,0.4-12.3-1
			c-2.2-1.5-1.2-4.4-1.2-4.4c0.6-1.6,2.1-5.2,1.6-8.1c-0.4-2.9-1-4.5-2.1-7.3c-1.1-2.7-1.9-9.4-0.9-9.7c1-0.4,0.7,0,2.1,0.3
			c1.3,0.3,2.8,0.7,5.6,0.7c2.9,0,6-0.4,7.1-0.7c1.1-0.2,2-0.4,1.6,1.8c-0.4,2.3-1.5,6.5-1.5,9.8c-0.1,3.3-0.1,7.1,0.1,7.8
			C101.7,114.5,103.3,115.3,104.5,116.1z"/>
		<g>
			<g>
				<path class="st0" d="M88.8,18.5c-8.1,7-23.7,8.9-46.8,17.8c-5.9,2.3-21.8,9.1-25.6,16.2C29.2,45.1,34,55.3,35,65.7
					c1,9.8,5.9,14.9,18.5,14.7c13-0.3,16.9,7.3,20.5,16.1c7-33.9,18.1-40.5,25.3-46.3C114.5,37.8,95.7,16,88.8,18.5z"/>
				<path class="st0" d="M88.8,18.5c-19.3,6.7-38.5,8.4-61,22.3C22.5,44.1,11.2,51.5,9,65.8c8.2-9.1,27.2-20.5,50.4-27.8
					c11.7-3.7,20.3-6.1,30.7-10.1C89.4,23.2,89.4,21.4,88.8,18.5z"/>
			</g>
			<path d="M113.5,58.6c0,0-1.4,4.8-4.2,6.3c0,0-2.1,0.7-6.2-1.5c-1.2-0.7-2.1-2.9-2-3.7c0.1-1.8,1.2-2.6,1.2-2.6s1.2-2,2.6-1.9
				c1.4,0.1,3.7,0.3,4.5-0.4C110,54.2,113.6,56.2,113.5,58.6z"/>
			<path d="M83.6,12.6c0,0-0.3,3.7-0.8,6.1c-0.1,0.4-2.3,0.7-3.9,1.3c3.1,8.8,21.6,8.7,24,4.4c-1.2-0.8-3.5-2.1-4.6-2.5
				c-1.1-0.4-1-0.4-1.1-2.4c-0.1-2.1-0.2-5.9-0.4-6.9C96.7,11.5,85.3,11.5,83.6,12.6z"/>
			<path class="st1" d="M84.3,12.6c0,0,0,2.1-0.2,4.2c-0.1,1-0.1,1.5-0.3,2.3c-0.1,0.4,2.5,2.2,3.2,6.1c3.5,7.8,11.6,4,15,0.2
				c-1.2-0.8-3.1-1.9-5.3-2.8c-1.1-0.4-0.6-1.4-0.7-3.4C96,17,95.7,14,95.6,12.9C95.4,11.8,86.1,11.5,84.3,12.6z"/>
			<path d="M83.6,12.6c0,0-0.1,1.3-0.3,2.9c1,1,2.2,2.3,3.2,3.1c0.7,0.6,2.3,0.5,3.7,0.5c1.3,0,2.5,0.1,3-0.1
				c1.2-0.6,2.9-2.1,3.8-3.2c-0.1-1.3-0.1-2.6-0.2-3.2C96.7,11.5,85.3,11.5,83.6,12.6z"/>
			<path d="M90.2,18.1c-0.9,0-1.9-0.1-2.7-0.2c-0.4-0.1-0.7-0.3-1-0.4c-0.5-0.4-1-0.8-1.6-1.2c-1.2-0.9-1.2-1.4-1.2-1.6
				c0.5-4.6-0.1-8.5-0.1-8.5s-0.5-2,2.3-2.5C88.6,3.1,90.2,3,90.2,3s1.8,0,4.5,0.6C97.5,4.1,97,6.1,97,6.1s-0.7,3.9-0.1,8.5
				c0,0.2-0.1,0.7-1.2,1.6c-1,0.7-1.8,1.5-2.6,1.7C92.1,18,91.1,18.1,90.2,18.1z"/>
			<path d="M90.2,1.1c-4.8,0-5.8,1.3-7.2,2.8c-0.3,0.4-0.1,2.6,0.4,7.3h0.7c0,0-0.4-1.3-0.4-2.9c0.1-1.5,0.4-1.5,0.1-1.8
				c-0.3-0.4-0.9-1.2,0.4-1.9c1.3-0.7,3.4,0.6,5.9,0.7c2.5-0.1,4.6-1.4,5.9-0.7c1.3,0.7,0.7,1.5,0.4,1.9c-0.3,0.4,0.1,0.3,0.1,1.8
				c0.1,1.5-0.4,2.9-0.4,2.9h0.7c0.4-4.7,0.7-6.7,0.5-7.1C96.3,2.4,95.1,1.2,90.2,1.1z"/>
			<path d="M113.5,58.9c0,0-1.4,4.5-4.1,6c-0.6-0.3-0.5-0.7-1-1.4c-0.1-0.2-0.7-0.4-0.9-0.6c-0.2-0.2-0.1-0.6-0.5-0.9
				c-0.3-0.3-0.5-0.1-0.8-0.3c-0.3-0.3-0.4-0.7-0.6-0.9c-0.1-0.1-0.7-0.2-0.9-0.4c-0.4-0.4-3.6-1-3.4-1.8c0.3-1.1,0.9-1.9,0.9-1.9
				s1.4-2.1,2.8-2c1.4,0.1,2.7,0.4,3.4-0.3C109.1,53.8,113.7,56.5,113.5,58.9z"/>
			<path d="M103.9,26.5c0,0,4.6-1.1,7.8,1.9c3.2,3.1,2.9,6.9,2,9.2c0.8,1,2.3,3.6,1.2,6.7c4.8,4.1,2.7,10.4-1.6,14.6
				c0,0-1-3.8-5.1-4c0.1-1.5-3.8-2.6-2-6.4c-2.8-0.7-2.7-2.6-3.2-4.9C102.6,41.2,103.9,26.5,103.9,26.5z"/>
			<path class="st1" d="M102.3,28.5c0,0,5.3-2.7,8.5,0.4c3.2,3.1,2.3,6.4,1.3,8.8c0.8,1,2.7,3.7,1.5,6.9c-0.2,0.7-1.8,0.7-3,2.6
				c2.9-1.7,4.8-1.2,5.4,0.9c1,3.3-1.2,7.3-3.2,9.5c0-0.1-0.1-0.1-0.1-0.2c-0.3,1.1-0.7,3.2-2.9,5.6c-1.1,1.2-2,1-3.2,0.7
				c-1.5-0.4-2-1-4-2.1c-1.2-0.7-0.5-1.5-0.5-2.1c0-0.1,0.1-0.4,0.4-0.7c0.1-0.4,0.6-1,1.2-1.6c0,0,1-1.3,2.3-1.2
				c1.4,0.1,2.9-0.2,3.2-0.6l0,0c0-2.6-2.9-2.6-1.9-7c0.1-0.2,0.4-0.6,1.6-0.7c-1.8-0.4-2.6-0.4-3.8-1.6c-0.9-0.8-1.5-1.8-1.8-3.2
				C103,40.5,102.3,28.5,102.3,28.5z"/>
			<path d="M86.8,23.9c-0.4-0.6-2.7-3.5-7-4.7c-1.2-0.4-2.1,0.7-3.3,1.4c-0.4-0.2-2-1-2.9-0.4c-0.9,0.5-1.5,1-2.3,1.4
				c-0.4-0.2-1.6-0.2-2.6,0.1c-1,0.3-2.4,1-3.8,2.9c-0.9,3.2,15.5,0.8,15.5,0.8L86.8,23.9z"/>
			<path class="st0" d="M86.9,23.9c-2.3-0.8-2-3.5-7.2-4c-1-0.1-1.7,0.7-2.4,1.2c0.4,0.4,0.7,1,1,1.5c-0.7-0.7-1.8-1.7-3-1.9
				c-1.1-0.2-1.8,0.6-3,1.2c0.2,0.2,0.4,0.6,0.7,1c-1-0.7-1.8-0.9-3.2-0.4c-1,0.3-2.8,1.1-4.2,3.1c-0.9,3.2,14.8-0.4,14.8-0.4
				L86.9,23.9z"/>
			<path d="M100.7,25.1c0,0,0-0.8-0.1-1.5c0-0.1-0.6-0.5-0.6-0.7l-0.1-0.1c0,0,1.2-0.7,2.1-0.3c1,0.3,1.5,1.5,1.5,1.5
				c1.7-0.6,1.8,0.1,2.6,1c1.8-0.4,2,0.3,3.1,1.9c0,0-1.3-0.2-3.9,0.2C102.8,27.4,100.7,25,100.7,25.1z"/>
			<path class="st0" d="M100.4,24.7c0,0,0.4-0.4,0.3-0.4c0.8-0.4,1.9-1,2.4,0.4c1.7-0.6,1.9,0.2,2.7,1.1c2.1-1,2.2,0.2,2.3,0.7
				c-0.7,0-1.6,0.1-2.9,0.2C102.8,27.1,100.4,24.6,100.4,24.7z"/>
			<path d="M75.5,22.9c0,0,4.2,1.5,7.7,1.2c3.5-0.3,9.5-0.6,12.7,1.3c0,0,3.3-1.2,6.4-0.4c3.1,0.8,8.7,6.1,7,11.6
				c-0.1,0.4-1.1,1-2.2,1.3c0,0,0.6,2.5-0.4,4.5c-1,2-3.3,5.8-3.4,11.1l0,0c-0.1,0.9-0.2,2.7-0.4,3.6C97.3,57,88.5,54.9,79.8,55
				c0.1-1,0.1-1.5,0.2-2.5h0.2c-0.4-2.4-0.6-3.7-1-5.5c-2.8-1.8-5.7-3.8-8.2-7.7C68.6,35.5,75.5,22.9,75.5,22.9z"/>
			<path d="M103.8,62.4c0,0,4.5,16.3-0.8,23.1c0,0,0.8,3.2-1,6.5c-0.3,1.5-0.7,2.8-0.9,4.2c-1,6.1-2.6,8.6-3,18.4l-4.4-0.1
				c0,0-0.5-7-2.1-10.8c-0.9-2.1-4.3-5-4.2-7.8c0.1-2.2,0.6-4,4.3-7c0.3-4.2-4-8.3-3.3-24.1L103.8,62.4z"/>
			<path class="st1" d="M102.5,61.8c1.2,7.5,3.9,18.5-1,24c0.2,1,0.4,2.5,0.1,4.2c-0.1,0.9-0.4,1.8-0.8,2.9c-0.7,1.8-1,4.3-1.2,5.9
				c-1,6.1-1,6.4-1.4,16.1l-4.4-0.1c0,0-0.5-7-2.1-10.8c-0.9-2.1-2.7-4-2.9-6.8c-0.1-2.2,1.4-6.6,5.1-6.4c-0.2-8.9-4.3-7.1-5.4-25.6
				L102.5,61.8z"/>
			<path class="st1" d="M75.5,22.9c0,0,1.6,0.5,3.4,0.7c1.8,0.1,3.7,0,5.3-0.1c3.5-0.3,8.5-0.7,11.8,1.2c0,0,1.8-0.6,3.8-0.4
				c0.9,0.1,1.8,0.8,2.8,1.1c3.2,0.8,6.3,6.2,4.9,11c-0.1,0.4-1.2,0-2.3,0.4c0.2,1,0.4,3.4-0.8,5.9c-1.2,2.5-2.9,5.7-2.6,11.9
				c-7.7-0.4-11.1-0.9-18.8-1.2c-0.7-2.7-1.1-5.4-1.2-6.8c1-0.5,1.6-1,2.4-1.8c-2.2,0.4-3.1,0.2-4.4-0.5c-1.3-0.7-3.7-3.1-4.8-4.6
				c-0.1-0.1-1,2.3-2.8,2.3c-0.7-1,2.1-3.7,1.6-4.7C72.1,33.4,75.5,22.9,75.5,22.9z"/>
			<path d="M103.1,55.7c0,0,0.1,2.6,0.1,3.3c0,0.7,0.6,2.9,0.7,4c-0.8,1.4-4.3,4.5-10.7,5.7c-6.3,1.3-14.7-8.6-14.7-8.6
				c0.2-1,1-3.7,1.5-5.2c0.1-0.1,0.2-0.5,0.2-0.7C80.9,53.3,103.1,55.7,103.1,55.7z"/>
			<path class="st1" d="M101.5,55.9c0,1.8,0.3,3.2,0.5,4.3c0.4,2.1,1,3.5,1,4.9c0,4.2-5.6,3.5-10.3,3.7C86.4,70.1,81,60.2,81,60.2
				c0.4-1.7,0.7-3.6,1.4-5.2l0,0c0.1-0.9,0.2-2,0.3-2.5c8.9,0,15.2,0.5,18.9,0.9C101.7,54.2,101.6,55.6,101.5,55.9L101.5,55.9z"/>
			<path d="M94.4,65.4c0,0-3.9-8.6-15.5-6.1c-2.8,7.8-6.5,16.9-4.1,26.6c-2.4,3.3-5.2,5.1-5.2,11.2c0,6.1,0.3,7.1,0.3,7.1l8.6,0.4
				c0,0,2.8-3.6,3.9-7.5c0.3-1.1,0.6-3.1,0.4-5.3c0.3-0.4,1.5-1.5,1.7-3.4c0,0,4.2-2.2,6.6-7.5C93.2,76,92.7,71.8,94.4,65.4z"/>
			<path class="st1" d="M94.4,65.4c-0.2-0.8-3.2-8.7-14-6.4c-6.4,17-4,24-3.1,27.1c-4.3,5.5-6.3,6.7-5.4,17.8h5.7
				c2.6-4.2,3.2-5.7,3.4-11.2c0-0.2-0.8,0.4-1.4,1.2c0.4-2.3,1.7-2.7,2.6-4.1c0.4-0.6,0.8-1.5,0.8-2.6c5.1-3.4,7-7.8,8.1-12.2
				C92.1,71.8,93.1,66.8,94.4,65.4z"/>
			<path d="M76.3,53.6c0,0,2,0.1,3.7,0.7c1.7,0.6,1.7,1,2.3,1.7c0.7,0.7,2.3,1.8,2,2.9c-0.1,0.6-0.5,0.7-1,1.2
				c-0.2,0.2-1.8,2-2.2,2.2c-0.2,0.1-0.5,0.4-0.7,0.5c-0.2,0.1-0.9,0.6-1.1,0.7c-0.7,0.4-1.2,0.6-2.1,0.5c0,0-1.8-0.1-3-1.3
				c0,0-0.1-0.6,0.1-0.9c0,0-1.5-1.3-2-2.2c-0.4-0.9-0.4-2.1-0.1-2.8C72.4,56.2,75.3,54.4,76.3,53.6z"/>
			<path d="M78.2,124.9l-0.2,1.8c0,0-0.7,0.8-5.6,0.7c-5-0.1-6.3-1.6-6.7-2.4l-0.3-1.9c0,0,1-1.4,1.2-1.4c1.6,0.1,7.1,2.3,10.9,2.9
				C77.8,124.6,77.9,124.8,78.2,124.9z"/>
			<path d="M88.8,121.1c0,0.8-0.1,0.8-0.1,1.6c0.9,0.7,3.1,1,7.3,1c6.1-0.1,11.7,1.8,18.6,0.7l0.1-1.3L114,123l-24.4-2L88.8,121.1z"
				/>
			<path d="M94.1,123.7c0.6,0,1.2,0,1.8,0c4-0.1,7.7,0.7,11.7,1c2.1-0.1,4.8-0.6,4.5-2.1l-20.8-1.8
				C90.2,122.2,91.1,123.3,94.1,123.7z"/>
			<path d="M70.2,92.8c0.7,0.4,5.1,3.1,12.4,2.7c-0.1,1.4-0.1,4.1-3.3,8.9c-1.6,2.3-3,6.4-3.3,11.6c0.1,1.2,0.7,2.2-0.1,3.7
				c0.3,1,1.5,2.9,2.1,4c0.6,1.2,0.9,2.5-3,2.6c-4,0.1-10.3-0.4-9.5-3.4c0.4-1.6,1.7-3.3,1.8-4c0.1-0.7,0.1-2.6,1.4-4
				c1.1-3.7,0.7-7.2,0.5-10.5C68.8,101.1,68.8,95.6,70.2,92.8z"/>
			<path d="M77.1,33.1c5.2-7,0.8-12.5-7.5-10.8c-3.4,0.7-6.7,3-7,7.3c-1.1,0.1-3.6,0.3-4.8,4.8c-1,3.5-1.5,4.2-3.2,5.9
				c-1.1,1.2,0.1,3.8,0.9,5.6c2.7,6.3,11.1,6.9,16.7,11.6c1.9-0.5,3.9-2.6,4.5-4c-4.8-5.6-3.7-7.8-5.6-10.8
				C73,42.1,77.7,39.2,77.1,33.1z"/>
			<path class="st1" d="M76,32.7c0.3-0.4,0.8-1.4,1-1.8c0.1-0.1,0.9,1.3,1,1.2c2-3.2,2.5-7.9,0.2-8.4c-0.5-0.1-1.5-0.3-2.3-0.6
				c-1.5-0.5-2.8-0.5-5.1-0.1c-3.2,0.6-6.4,2.9-6.4,6.3c0,0.2,2.3,0.9,2.9,3.6c-1.1-1.5-3-3.2-5.3-1.8c-2.4,1.5-1.2,5.1-4.4,8.7
				c-1.1,1.2-1,2.7,0.2,5.6c1.9,4.6,10.9,7.1,15.8,11.5c1.2-0.5,2-1.7,2.6-2.6c-3.3-3.4-4.6-6.7-5.6-9c-1.2-2.7-2.5-4.2-5.1-6.3
				c1.3,0.5,2.3,1,2.9,1.5c0.7,0.4,1.6,0.5,2.5,0.2C74.2,39.9,75.9,35.5,76,32.7z"/>
			<path d="M107.9,33.9c-0.2,2.8-2.3,1.4-3.4,0.9c-2.2-1-4.4-1.6-7-1.6s-5.9,0.2-8.7,1c-4,1.1-5.1,1-6.9,0.1c-1.8-1-4.8-3.3-4.8-3.3
				s-0.1,0.7,0.7,1.7c1,1.2,3.1,2.6,5.9,3.6c1.4,0.4,2.5,0.1,3.7-0.1c6.5-1.6,13.4-1.9,19.2,1.6c0.3,0.1,1.3-0.3,1.8-1
				C109,35.8,107.9,33.9,107.9,33.9z"/>
			<path class="st2" d="M74.6,61.8c0.6,0.4,1.3,0.6,2.1,1.2c0,0-0.7,0-1-0.3C75.4,62.5,74.6,61.9,74.6,61.8L74.6,61.8z"/>
			<path class="st1" d="M95.7,3.7c-0.2-0.7-1.8-1.8-5.6-1.8c-4,0-5.2,1.2-5.3,1.9c0,0.2-0.3,2.6-0.4,3.5c0,0,0,1.2,0.1,2.9
				c0.1,1.2,0.4,1.8,0.5,3.4c0.1,1.6,0.6,2.6,1.4,4c0.4,0.2,0.7,0.4,1,0.5c1.5,0.3,4,0.4,5.4,0c0.8-0.2,1.8-1.6,2.1-2.9
				c0.3-1.5,0.6-2.6,0.7-3.6c0.1-1,0.2-3.1,0.3-3.7C96.2,6.3,95.8,3.8,95.7,3.7z"/>
			<path d="M88,94.2c0,0,3.9,1.7,13.5,0.2c0,0-2.7,13.6-1.5,20.4c0,0,1.2,1.8,10.5,5.1c0,0,4.1,1,4,3.1c0,0,0.1,0.4-4.8,0.3
				c-5-0.1-9.7-1-13-1s-6.8,0.1-7.4-0.8c-0.7-0.9,0.1-3.2,1.1-4.5c1-1.4,0.7-2.4,0.7-4.9C90.8,105.7,85.8,98.9,88,94.2z"/>
			<path class="st0" d="M87.2,95.5c-0.5,0.7,0.1,3.5,0.8,6.2c0.7,2.7,2.3,4.3,2.7,8.8c0.4,4.4,0.4,5-0.8,7.5c-1.2,2.6-1.6,4.9,2.7,5
				c4.3,0.1,6.7-0.1,11.1,0.6c4.4,0.7,5.9,0.9,8.4,0.5s2.9-1.2,1.9-1.9c-1-0.7-5.3-1.5-7.1-3c-1.8-1.3-6.7-3.5-6.8-4.1
				c-0.2-2-0.3-9.2,0.1-11.5c0.4-2.3,0.9-5.7,1-6.6c0.1-0.9,0.9-1.8-0.4-1.5c-1.2,0.3-5.9,1-9.5,0.7C87.8,96.1,87.5,95.3,87.2,95.5z
				"/>
			<path class="st3" d="M89.7,118.1c1.2,0.6,3.1,1,4.5,1c0,0-0.5,2.4,0.3,3.9c0.8,1.5-5.9,0.6-5.9,0.6l-0.3-5.2L89.7,118.1z"/>
			<path class="st3" d="M109.1,124.4c1.2-0.4,2-1.7,1-2.9c-1-1.2-1.9-1.5-0.6-1.5c1.3-0.1,6.2,2.9,6.2,2.9l-2.5,2.3L109.1,124.4z"/>
			<path class="st3" d="M87,98.3c1.7,0.6,4.2,0.7,6.4,0.7c2.2-0.1,5.5-0.4,7.6-1.1c2.1-0.7,1.2,0.8,1.2,0.8l-1.2,1.1
				c0,0-2.8,1.1-7.3,1c-5.3-0.1-7-0.7-7-0.7L87,98.3z"/>
			<path class="st3" d="M87.2,102c1.7,0.6,4.2,0.7,6.4,0.7c2.2-0.1,5.1-0.1,7.3-0.9c0.9-0.3,0.4,1,0.4,1l-0.4,0.7c0,0-2.9,1-7.3,1
				c-5.3-0.1-6.3-0.5-6.3-0.5L87.2,102z"/>
			<path class="st4" d="M88,94.2c0,0,6.4,2.3,13.6,0.7c0,0-2.8,13.1-1.5,19.9c0,0,1.2,1.8,10.5,5.1c0,0,4.1,1,4,3.1
				c0,0,0.1,0.4-4.8,0.3c-5-0.1-9.7-1-13-1s-6.8,0.1-7.4-0.8c-0.7-0.9,0.1-3.2,1.1-4.5c1-1.4,0.7-2.4,0.7-4.9
				C90.8,105.7,85.8,98.9,88,94.2z"/>
			<path class="st4" d="M88,94.2c0,0,6.4,2.2,13.6,0.7c0,0-2.8,13.2-1.5,19.9c0,0,1.2,1.8,10.5,5.1c0,0,4.1,1,4,3.1
				c0,0,0.1,0.4-4.8,0.3c-5-0.1-9.7-1.5-13-1c-3.4,0.6-6.8,0.4-7.4-0.8c-0.5-1,0.1-3.2,1.1-4.5c1-1.4,0.7-2.4,0.7-4.9
				C90.8,105.7,85.8,98.9,88,94.2z"/>
			<path d="M82.3,50.6c0,0.5,5.7,3.4,8.9,4c3.2,0.6,9.7,0,10.8-0.2l-0.1,1c0,0-7.8,1.2-13.8-0.4c-6-1.6-5.3-2-5.3-2L82.3,50.6z"/>
			<g>
				<path class="st1" d="M70.1,113.1c0.9,0.4,4,1.2,6.1,0.8c0.3-0.1,0-5.1,0.8-7.3c1.2-3.2,3.1-5.7,4-11.3c-3.1-0.3-6.6-1.1-8.4-1.7
					C70.2,100.8,71,107,70.1,113.1z"/>
				<path class="st1" d="M75,117.8c0.5,0.1,0.9,0.7,1,0.4c0.3-0.7-0.5-1.9-0.6-2.8c0-0.1,0,0,0-0.1c-0.7-0.6-5.1-0.7-4.8-0.4
					c-0.5,1-1.3,0.8-1.6,2.7c-0.1,1,1,0.1,2.1,0.1c-2,1.3-4.2,3-4.6,4.5c-0.4,2.1,0.3,2.6,2.5,3.7c1.9,0.4,4.2,0.5,5.9,0.4
					c2-0.4,2.3-1.3,1.8-2.6C75.8,121.7,75.2,119.1,75,117.8z"/>
			</g>
			<path d="M75.8,22.6c2.4,1.4,5.8,1,7,1c0.3,0,3.2-0.5,3.4-0.4c0.3,0.1,0.3,0.3,0.3,0.3s-1.1,0.6-3.6,0.7c-2.3,0.1-5.1,0-6.7-0.7
				C74.4,22.6,75.8,22.6,75.8,22.6z"/>
			<path d="M100.7,24c0.4,0.3,3.3,1.4,4.5,2.7c1.1,1.2,0.5,1.1,0.3,0.8c-0.3-0.4-2.6-1.9-3.4-2.3c-0.9-0.4-2-1-2-1.2
				S100.7,24,100.7,24z"/>
			<path class="st1" d="M75.4,54.4c2.1-0.1,4.3,0.4,5.7,1.8c0.7,0.7,1.9,1.5,1.8,2.3c0,0.2-0.4,0.8-0.8,1.2c-0.2,0.3-0.9,1-1.1,1.2
				c-0.3,0.2-1.3,1-1.5,1.2c-0.2,0.1-0.5,0.5-0.7,0.6c-0.7,0.4-1.5,0.1-2.3-0.3c-0.7-0.4,0.1-0.4-0.7-1c-2-1.4-3.1-2.3-2.3-5.1
				C73.6,55.8,74.4,55.2,75.4,54.4z"/>
		</g>
		<path class="st5" d="M56.8,37.6c-6.6,2.6-23.4,11-28.1,13.6l0,0c4,2.5,5.8,8.5,6.4,14.6c0.1,0.6,0.1,1.1,0.2,1.7
			c0.1,0.5,0.1,0.9,0.2,1.1c0,0.1,0,0.2,0.1,0.3C39.8,57,55.3,44.6,55.9,43.6c0.3-0.4-0.4-2.3,0.7-4.2
			C57.9,37.1,60.4,36.1,56.8,37.6z"/>
		<path class="st5" d="M72.4,92.9c3.4-6.7,3.4-13.2,3.4-20.7c0-3.2,2.3-7.6,1.1-6.4C72.5,70.7,61.5,80,53.5,80.5
			C64.7,80.1,69.1,85.7,72.4,92.9z"/>
		<path d="M22.2,57.4c4.2-3,25.8-14.5,31-16.1c5.2-1.7,3.6-3.7,3.6-3.7s-21.1,9.1-33.7,16.9"/>
		<path class="st5" d="M83.7,36.2c-1.7-0.7-3,1.3-2.6,3.2c0.4,1.9,4.4,4,4.2,11c-0.1,5.7-1.4,8.1-1.4,8.1L81.2,55
			c0,0-0.4-7.9-1.4-9.1c-1-1.2-4-3.3-5.1-4.4c-1.2-1.1,1.3-2.6,1.2-4.6c-0.1-2,1.2-5.9,1.2-5.9L83.7,36.2z"/>
		<path class="st5" d="M93.9,67.4c-0.1,5.5,1.1,13.6,1.6,17.5c0.5,3.9,1.2,4.2,0,5.9c-1.2,1.7-2.7,4.5-2.7,4.5l-5.1-0.4
			c0,0,4-5.1,4.2-6.1c0.2-1-2.1-8.2-2.1-8.2L93.9,67.4z"/>
		<path class="st5" d="M84.2,16.1c1,2.3,2.3,3.3,4.2,4c1.2,0.4,5.8,1,7.6-1c0.8-1,0.3-3.5,0.3-3.5l-4.2,3.4l-5.6-1l-0.7-1.7
			L84.2,16.1z"/>
		<path class="st6" d="M84.6,21.2c1.9,1.2,6.7,2.4,8,2.6c1.3,0.3,3.4-1.4,4.5-1.8c1.1-0.5,3-0.8,5.2,1.2c0.2,0.2-0.5,1.2-0.5,1.2
			c-0.1-0.1-0.5-0.1-1.1-0.4c-0.6-0.3-1.1-0.5-2-0.4c-3.7,0.4-4.2,1.7-7.5,1c-3.2-0.7-4-1.3-7.2-1.2"/>
		<path class="st0" d="M83.9,21.4c2.4,1,7.1,2.1,8.4,2.4c1.3,0.3,3.4-1,4.5-1.7c1.8-1.2,4.2-0.2,5.3,1c0.7,0.8,1,1.3,1,1.5
			c0,0.3-0.9,0-0.9,0c-0.5-0.2-1.1-0.3-1.5-0.6c-0.6-0.3-1.2-0.7-2.1-0.7c-3.7,0.4-4.4,1.7-7.5,1c-3.2-0.7-4-1.4-7.3-1.2"/>
		<path d="M72.6,89.8c-0.1-0.1,0.1-0.3,0-0.3c-1,0-2.3-0.7-3-1.8c-3.2-4.5-7.8-7.5-16.1-7.3C40.9,80.8,36,75.6,35,65.8
			c-0.5-5.3-2-10.5-5-13.5l-1.8,1.1c3.4,2.9,4.5,7.7,5.2,14.2c1.2,9.8,9.1,14.4,18.3,14.5c9.6,0.1,13,2.1,16.6,7
			c1.2,1.5,2.5,2.1,3.5,2.3L72.6,89.8z"/>
		<path class="st5" d="M106.6,42.7c0.2,1.1,0.8,3.2,2,4.2c0.5,0.5,0.6,0.7,0.1,0.7c-0.4,0-3.7-0.1-3.7-0.1l-0.9-1.5L106.6,42.7z"/>
	</g>
</g>
<g>
</g>
<g>
</g>
<g>
</g>
<g>
</g>
<g>
</g>
<g>
</g>
<g>
</g>
<g>
</g>
<g>
</g>
<g>
</g>
<g>
</g>
<g>
</g>
<g>
</g>
<g>
</g>
<g>
</g>
</svg>
