<?xml version="1.0" encoding="utf-8"?>
<!-- Generator: Adobe Illustrator 22.0.1, SVG Export Plug-In . SVG Version: 6.00 Build 0)  -->
<svg version="1.1" id="Layer_1" xmlns="http://www.w3.org/2000/svg" xmlns:xlink="http://www.w3.org/1999/xlink" x="0px" y="0px"
	 viewBox="0 0 128 128" style="enable-background:new 0 0 128 128;" xml:space="preserve">
<style type="text/css">
	.st0{fill:#D34A47;}
	.st1{fill:#FFFFFF;}
</style>
<path class="st0" d="M79.3,124.1l1.2-20.5l3.4-5.8c0,0-7.7,3.2-20.6,3.2c-12.9,0-20.5-3.1-20.5-3.1l3.8,6.3l1.3,19.9
	c0,2.1,7,3.9,15.7,3.9C72.3,128,79.3,126.3,79.3,124.1 M75.4,28.6L78,18.4l14.3-15l-3.8-3.2l-15.1,16l-3,12.2
	c-2.3-0.1-4.5-0.1-6.8-0.1c-15.9,0-28.8,1.8-28.8,4.1c0,2.2,12.9,4.1,28.8,4.1c15.9,0,28.8-1.8,28.8-4.1
	C92.5,30.6,85.5,29.2,75.4,28.6"/>
<path class="st1" d="M73.9,34.3c0,0-0.6,0.1-2.2,0.1c-1.6,0-2.8,0-3.3-0.4c-0.1-0.1-0.2-0.3-0.2-0.5c0-0.3,0.2-0.5,0.5-0.6l0.2,0.4
	c-0.1,0-0.2,0.1-0.2,0.1c0,0.2,1.7,0.4,3,0.4c1.3,0,2.8-0.1,2.8-0.3c0-0.1-0.1-0.1-0.3-0.2l0.2-0.4c0.3,0.1,0.6,0.3,0.6,0.6
	C75.1,34.1,74.4,34.2,73.9,34.3"/>
<path class="st0" d="M92.2,3.4C92.6,3,92.1,1.9,91,1c-1-0.9-2.2-1.3-2.5-0.9c-0.4,0.4,0.2,1.5,1.2,2.4C90.8,3.4,91.9,3.8,92.2,3.4
	 M78.6,74.2c-0.3-3.3,7.1-8,5.2-8.1c-4.1,0.2-6.2,4.8-8.2,9.6c-0.8,1.8-3.4,9.3-5.1,8.4c-1.7-0.9,2.2-7.1,3.3-10.8
	c-1.3,0.9-5.9,4.5-7.1,1.2c-1.9,1.6-6,2.5-5.6-1.8c-1,1.8-3.3,4.3-6.1,3.3c-3.6-1.4,2.1-12.9,3.5-12.3c1.4,0.6-0.3,3.2-0.7,4.2
	c-1,2.2-2.1,5.1-1.4,5.6c1.3,1,4.8-3.7,4.9-3.8c0.7-0.9,2.5-6.6,4.1-5.9c1.5,0.7-3.8,8.2-1.8,9.7c0.4,0.3,2-0.2,3-1.3
	c0.6-0.7,0.4-2.2,2.6-7.4c2.2-5.1,4.1-11.5,5.5-11c1.5,0.5,0.3,3.8-0.3,5c-2.5,5.7-6.8,15.2-4.8,14.5c2-0.7,3.1-0.8,5.1-3.1
	c2-2.3,1.9-6.1,3.2-6.1c1.3,0.1,1.1,1.3,0.8,2.2c1.3-1.5,6.2-4.6,7.3-1.5c1.4,3.7-7,9-4.9,8.7c2-0.3,5.3-2.3,6.7-4.2l3.9-34.8
	c0,0-3.9,3.2-28.6,3.2c-24.8,0-28.2-3.2-28.2-3.2l3.3,31.7c1.7-5,5.9-15,12.4-14.7c3,0.2,6.9,5.9,3.5,6.1c-1.4,0.1-1.6-2.9-3.3-3.3
	c-1.2-0.3-2.9,0.7-4.1,1.8c-2.2,2.2-7,10.7-6.3,14.9c0.8,5.4,7.5-1.9,8.6-4.1c0.8-1.5,1.3-6.1,3.1-5.6c1.7,0.5-0.2,5.1-1.4,9.3
	c-1.4,4.6-2.2,9.5-3.9,9c-1.8-0.6,1.1-6.5,1-7.6c-1.7,1.5-4.7,5.4-8.7,3.5l2,19.7c0,0,5.4,4.3,21.8,4.3s22-4.2,22-4.2l2.5-22.8
	C85.6,74.6,79,78.2,78.6,74.2"/>
</svg>
