<?xml version="1.0" encoding="utf-8"?>
<!-- Generator: Adobe Illustrator 22.0.1, SVG Export Plug-In . SVG Version: 6.00 Build 0)  -->
<svg version="1.1" id="Layer_1" xmlns="http://www.w3.org/2000/svg" xmlns:xlink="http://www.w3.org/1999/xlink" x="0px" y="0px"
	 viewBox="0 0 128 128" style="enable-background:new 0 0 128 128;" xml:space="preserve">
<style type="text/css">
	.st0{fill:#E34E26;}
	.st1{fill:#EF662A;}
	.st2{fill:#FFFFFF;}
	.st3{fill:#EBEBEB;}
</style>
<g id="Guides_to_delete">
	<g>
		<polygon class="st0" points="17.9,115.1 7.7,0.1 120.3,0.1 110,115.1 64,127.9 		"/>
		<polygon class="st1" points="64,9.5 64,118.1 101.3,107.8 110,9.5 		"/>
		<polygon class="st2" points="28.7,23.6 32.5,66.3 81.4,66.3 79.7,84.6 64,88.8 48.3,84.6 47.2,72.8 33.1,72.8 35.1,95.5 64,103.5 
			92.9,95.5 96.8,52.2 45.4,52.2 44.1,37.7 98,37.7 98.1,37.7 99.3,23.6 		"/>
		<g>
			<polygon class="st3" points="64,23.6 28.7,23.6 32.5,66.3 64,66.3 64,52.2 45.4,52.2 44.1,37.7 64,37.7 			"/>
			<polygon class="st3" points="64,88.8 64,88.8 48.3,84.6 47.2,72.8 33.1,72.8 35.1,95.5 64,103.5 64,103.5 			"/>
		</g>
	</g>
</g>
<g>
</g>
<g>
</g>
<g>
</g>
<g>
</g>
<g>
</g>
<g>
</g>
<g>
</g>
<g>
</g>
<g>
</g>
<g>
</g>
<g>
</g>
<g>
</g>
<g>
</g>
<g>
</g>
<g>
</g>
</svg>
