<?xml version="1.0" encoding="utf-8"?>
<!-- Generator: Adobe Illustrator 22.0.1, SVG Export Plug-In . SVG Version: 6.00 Build 0)  -->
<svg version="1.1" id="Layer_1" xmlns="http://www.w3.org/2000/svg" xmlns:xlink="http://www.w3.org/1999/xlink" x="0px" y="0px"
	 viewBox="0 0 128 128" style="enable-background:new 0 0 128 128;" xml:space="preserve">
<style type="text/css">
	.st0{fill:#F7DF1E;}
</style>
<path class="st0" d="M0,0h128v128H0V0z"/>
<path d="M33.7,107l9.8-5.9c1.9,3.4,3.6,6.2,7.7,6.2c4,0,6.4-1.5,6.4-7.6V58.8h12v41.1c0,12.5-7.3,18.1-18,18.1
	C42.1,118,36.5,113,33.7,107 M76.2,105.7L86,100c2.6,4.2,5.9,7.3,11.9,7.3c5,0,8.2-2.5,8.2-5.9c0-4.1-3.3-5.6-8.8-8l-3-1.3
	c-8.7-3.7-14.4-8.3-14.4-18.1c0-9,6.9-15.9,17.6-15.9c7.6,0,13.1,2.7,17.1,9.6l-9.4,6c-2.1-3.7-4.3-5.2-7.7-5.2
	c-3.5,0-5.8,2.2-5.8,5.2c0,3.6,2.2,5.1,7.4,7.3l3,1.3c10.2,4.4,16,8.8,16,18.9c0,10.8-8.5,16.8-19.9,16.8
	C86.9,118,79.7,112.6,76.2,105.7"/>
</svg>
