<?xml version="1.0" encoding="utf-8"?>
<!-- Generator: Adobe Illustrator 22.0.1, SVG Export Plug-In . SVG Version: 6.00 Build 0)  -->
<svg version="1.1" id="Layer_1" xmlns="http://www.w3.org/2000/svg" xmlns:xlink="http://www.w3.org/1999/xlink" x="0px" y="0px"
	 viewBox="0 0 128 128" style="enable-background:new 0 0 128 128;" xml:space="preserve">
<style type="text/css">
	.st0{fill:#1A1918;}
	.st1{fill:#21609B;}
</style>
<g>
	<path class="st0" d="M122.7,51.4l5.3,0c0,0-10,13.5-10.8,14.6c-0.2,0.3-0.6,0.7-0.8,1.2c-0.5,1.2-1,3.8-1,3.8h-4.9
		c0,0,0.7-2.7,0.7-4.2c0-1.3-0.7-2.5-1-3.8c-0.3-1.3-0.8-3.8-0.8-3.8h5l0.7,2.8L122.7,51.4"/>
	<path class="st0" d="M112.5,54.3c1,0.6,1.6,3.9,1.6,3.9s-5.2,0.1-8,0.1h-2.4l-2.9,12.9h-4.5c0,0,2.8-14,3.5-16.5
		c0.2-0.8,1.5-0.7,3.6-0.7h3.4C108.8,53.9,111.4,53.6,112.5,54.3 M91.4,60.6c0,0,0.1-0.8-0.5-1.8c-0.5-0.8-1-1-2.4-1
		c-3.9-0.1-3.8,2.8-3.8,2.8L91.4,60.6z M95.6,57.2c0.6,2.1-0.5,6.9-0.5,6.9s-5.7-0.1-8.9,0c-1,0-2.1-0.1-2.4,0.3
		c-0.4,0.6,0.1,1.6,0.6,2c0.5,0.5,1.6,0.5,2,0.6c2.5,0.3,7.9,0.1,7.9,0.1l-0.9,4.1c0,0-7.5,0.4-11.3-0.5c-0.7-0.2-1.4-0.5-1.9-1
		c-0.1-0.1-0.2-0.3-0.3-0.5c-0.1-0.1-0.4-0.5-0.5-0.9c-0.8-2.3,0.1-6.7,1-9c0.1-0.2,0.2-0.6,0.4-0.9c0.2-0.3,0.3-0.8,0.5-1
		c0.1-0.1,0.2-0.2,0.3-0.4c0.1-0.1,0.2-0.3,0.4-0.5c0.3-0.4,0.7-0.7,1.2-1c1.5-1.2,4.4-2.1,7.8-1.7c1.3,0.1,3.2,0.6,4.2,1.9
		C95.4,56,95.5,56.7,95.6,57.2L95.6,57.2z M74.9,53.9l4.4,0c0,0-2.4,11.6-3.7,17.3h-5c-3.5,0-6.7,0.4-8-2.1c-1.3-2.4,0-6.5,0.5-9.2
		c0.4-1.9,1.3-5.9,1.3-5.9l4.5,0c0,0-1.3,6.2-1.8,9.2c-0.2,1.1-0.6,2.1-0.1,2.9c0.4,0.8,0.9,0.8,2.6,0.8c0.5,0,2.2,0,2.2,0
		L74.9,53.9 M54.3,62.3c0.4-1.6,1.1-3.4,1-4.9c-0.1-1.6-1.4-3-2.2-3.3c-2.5-0.9-4.9,0.3-5.9,1.4c-1.2,1.3-1.6,2.9-2.1,5
		c-0.3,1.6-0.6,3.3,0,4.5c1,2.2,4.3,1.7,7.8,1.7C53.4,65.4,53.8,63.8,54.3,62.3L54.3,62.3z M60.4,55.8c0.5,3.6-1.4,7.7-2.7,11.2
		c1.3,0.1,2.5,0,2.6,0.1c0.1,0.1-0.9,4.2-1.2,4.2c-1,0-4.6,0-6.1,0c-4.8,0-9.3,0.3-11.7-2.1c-0.9-1-1.6-2.6-1.7-3.8
		c-0.2-1.9,0-4.1,0.5-5.9c0.4-1.6,0.9-3.1,1.7-4.5c2-3.5,5.5-6.2,11.5-5.6c1.1,0.1,2.8,0.6,3.8,1.2c0,0,0.3,0.2,0.4,0.3
		C58.8,51.8,60.1,53.9,60.4,55.8L60.4,55.8z M39,53.9c-0.3,1.3-0.6,2.8-0.9,4.1h-4.9c0.4-1.4,0.6-2.9,1-4.2
		C35.8,53.9,37.3,53.9,39,53.9 M33,59.3h4.7c-0.6,3.4-1.8,8.9-2.8,12.7c-0.6,2.4-1,4.1-2.6,5.4c-0.1,0.1-0.2,0-0.3,0.1
		c-0.3,0.3-1.7,0.6-2.4,0.7c-1.2,0.1-2.6,0-4.1,0c0.4-1.4,0.8-3.2,1.2-4.5c3.7,0.4,3.8-3,4.5-6.4C31.5,65.4,32.8,60.1,33,59.3"/>
	<g>
		<path class="st1" d="M22,68.2l-0.1,0.2c-1.7,3.3-4.7,5.4-9.1,5.5c-2,0-3.9-0.5-5.2-1c-2.7-1.2-5-3.5-6.3-5.9
			c-1.8-3.5-2.1-8.3,1.6-11.9c0,0-0.4,0.8-0.4,0.8l-0.1,0.3C-0.3,64.6,8,71.8,16.1,71C18,70.8,20.5,69.7,22,68.2"/>
		<path class="st1" d="M17.2,64.7c2,0,4.1-0.9,5.4-2.2c-1.1,2.8-4.3,4.6-8.5,4c-3.5-0.5-6.9-4-7.3-7.6c-0.2-2.6,0.6-4.2,2.1-6.1
			c-0.5,1-0.7,1.7-0.7,2.2C7.5,60.6,12.6,64.7,17.2,64.7"/>
		<path class="st1" d="M22.4,57.7c-0.3,0.7-2.1,2.1-2.9,2.2c-3.2,0.7-5.2-0.8-6.3-2.5c-0.1-0.2-0.4-0.9-0.5-1.1
			c-0.4-1.4-0.2-3.5,1-4.6c-0.3,1-0.4,2.2-0.2,3c0.1,0.5,0.5,1.3,0.8,1.8c0.6,0.9,1,1.2,1.9,1.7c0.4,0.2,0.8,0.4,0.9,0.4
			C17.9,58.9,19.6,59.5,22.4,57.7"/>
	</g>
</g>
</svg>
