<?xml version="1.0" encoding="utf-8"?>
<!-- Generator: Adobe Illustrator 22.0.1, SVG Export Plug-In . SVG Version: 6.00 Build 0)  -->
<svg version="1.1" id="Layer_1" xmlns="http://www.w3.org/2000/svg" xmlns:xlink="http://www.w3.org/1999/xlink" x="0px" y="0px"
	 viewBox="0 0 128 128" style="enable-background:new 0 0 128 128;" xml:space="preserve">
<style type="text/css">
	.st0{fill:#FB503B;}
</style>
<title>laravel</title>
<path class="st0" d="M127.5,61c-0.9-0.9-12.6-15.7-14.6-18.1c-2.1-2.4-3-2-4.4-1.8c-1.4,0.2-16.1,2.7-17.8,2.9
	c-1.7,0.3-2.7,0.9-1.7,2.4c0.9,1.4,10.6,15.1,12.8,18.3L63,73.9L32.2,22.3c-1.2-1.8-1.5-2.4-4.3-2.3c-2.7,0.2-24.2,2-25.7,2
	c-1.5,0.2-3.2,0.8-1.7,4.4s25.9,56,26.5,57.5c0.6,1.5,2.4,4,6.5,3c4.3-1.1,18.9-4.9,26.9-7c4.3,7.6,12.8,23.1,14.5,25.4
	c2.1,3,3.7,2.4,6.8,1.5c2.6-0.8,39.9-14.1,41.5-14.9c1.7-0.8,2.7-1.2,1.5-2.9c-0.9-1.2-10.6-14.5-15.8-21.3
	c3.5-0.9,16.1-4.3,17.5-4.7C128.1,62.7,128.4,61.9,127.5,61L127.5,61z M57,75.4c-0.5,0.2-22.2,5.3-23.3,5.6
	c-1.2,0.3-1.2,0.2-1.2-0.3c-0.3-0.5-25.9-53.4-26.3-54c-0.3-0.6-0.3-1.2,0-1.2s20.5-1.8,21.1-1.8c0.8,0,0.6,0.2,0.9,0.6
	c0,0,28.5,49.1,28.9,49.9C57.8,75,57.5,75.3,57,75.4L57,75.4z M118.2,86.9c0.3,0.6,0.8,0.9-0.5,1.2c-1.1,0.5-36.7,12.5-37.4,12.8
	c-0.8,0.3-1.2,0.5-2.1-0.9c-0.9-1.4-12.5-21.3-12.5-21.3l37.9-9.9c0.9-0.3,1.2-0.5,1.8,0.5C106,70.3,117.9,86.4,118.2,86.9
	L118.2,86.9z M120.6,60.1c-0.9,0.2-14.8,3.7-14.8,3.7L94.5,48.2c-0.3-0.5-0.6-0.9,0.2-1.1c0.8-0.2,13.7-2.4,14.3-2.6
	s1.1-0.3,1.8,0.8c0.8,0.9,10.5,13.4,11,13.8C122.2,59.6,121.6,59.9,120.6,60.1L120.6,60.1z"/>
</svg>
