<?xml version="1.0" encoding="utf-8"?>
<!-- Generator: Adobe Illustrator 22.0.1, SVG Export Plug-In . SVG Version: 6.00 Build 0)  -->
<svg version="1.1" id="Layer_1" xmlns="http://www.w3.org/2000/svg" xmlns:xlink="http://www.w3.org/1999/xlink" x="0px" y="0px"
	 viewBox="0 0 128 128" style="enable-background:new 0 0 128 128;" xml:space="preserve">
<style type="text/css">
	.st0{fill:#8CC84B;}
</style>
<g>
	<path class="st0" d="M58.7,1.4c3.2-1.8,7.3-1.8,10.5,0c16,9,31.9,18,47.9,27c3,1.7,5,5,5,8.5v54.2c0,3.6-2.2,7-5.3,8.7
		c-15.9,9-31.8,17.9-47.7,26.9c-3.2,1.9-7.5,1.7-10.6-0.3c-4.8-2.8-9.5-5.5-14.3-8.3c-1-0.6-2.1-1-2.8-2c0.6-0.8,1.7-0.9,2.6-1.3
		c2-0.6,3.8-1.6,5.6-2.6c0.5-0.3,1-0.2,1.5,0.1c4.1,2.3,8.1,4.7,12.2,7.1c0.9,0.5,1.8-0.2,2.5-0.6c15.6-8.8,31.2-17.6,46.8-26.4
		c0.6-0.3,0.9-0.9,0.9-1.5c0-17.9,0-35.8,0-53.7c0.1-0.7-0.3-1.4-1-1.7C96.5,26.6,80.7,17.6,64.9,8.7c-0.6-0.4-1.3-0.4-1.9,0
		c-15.8,8.9-31.7,17.9-47.5,26.8c-0.6,0.3-1.1,0.9-1,1.7c0,17.9,0,35.8,0,53.7c-0.1,0.6,0.3,1.2,0.9,1.5c4.2,2.4,8.5,4.8,12.7,7.2
		c2.4,1.3,5.3,2,7.9,1.1c2.3-0.8,3.9-3.2,3.9-5.7c0-17.8,0-35.6,0-53.4c-0.1-0.8,0.7-1.4,1.5-1.4c2,0,4.1,0,6.1,0
		c0.8,0,1.4,0.8,1.3,1.6c0,17.9,0,35.8,0,53.7c0,4.8-2,10-6.4,12.3c-5.4,2.8-12.2,2.2-17.5-0.5c-4.6-2.3-9.1-5.1-13.7-7.5
		c-3.2-1.6-5.4-5.1-5.3-8.7V36.9c0-3.5,2.1-6.9,5.1-8.6C26.9,19.3,42.8,10.3,58.7,1.4z"/>
	<path class="st0" d="M72.6,38.9c6.9-0.4,14.4-0.3,20.6,3.2c4.8,2.6,7.5,8.1,7.6,13.5c-0.1,0.7-0.9,1.1-1.6,1.1c-2,0-4,0-6,0
		c-0.9,0-1.3-0.8-1.5-1.5c-0.6-2.6-2-5.1-4.4-6.3c-3.7-1.9-8-1.8-12.1-1.7c-3,0.2-6.1,0.4-8.6,2.1c-1.9,1.3-2.5,4-1.8,6.1
		c0.6,1.5,2.4,2,3.9,2.5c8.4,2.2,17.2,2,25.4,4.8c3.4,1.2,6.7,3.5,7.9,7c1.5,4.8,0.9,10.5-2.5,14.3c-2.7,3.1-6.7,4.9-10.7,5.8
		c-5.3,1.2-10.8,1.2-16.2,0.7c-5.1-0.6-10.3-1.9-14.3-5.4c-3.3-2.9-5-7.4-4.8-11.8c0-0.7,0.8-1.3,1.5-1.2c2,0,4.1,0,6.1,0
		c0.8-0.1,1.4,0.6,1.5,1.4c0.4,2.4,1.3,5,3.4,6.5c4.1,2.7,9.3,2.5,14,2.5c3.9-0.2,8.3-0.2,11.5-2.8c1.7-1.5,2.2-3.9,1.7-6.1
		c-0.5-1.8-2.4-2.6-4-3.2c-8.2-2.6-17.2-1.7-25.4-4.6c-3.3-1.2-6.5-3.4-7.8-6.8c-1.8-4.8-1-10.8,2.8-14.5
		C62.3,40.9,67.5,39.4,72.6,38.9L72.6,38.9z"/>
</g>
</svg>
