<?xml version="1.0" encoding="utf-8"?>
<!-- Generator: Adobe Illustrator 22.0.1, SVG Export Plug-In . SVG Version: 6.00 Build 0)  -->
<svg version="1.1" id="Layer_1" xmlns="http://www.w3.org/2000/svg" xmlns:xlink="http://www.w3.org/1999/xlink" x="0px" y="0px"
	 viewBox="0 0 128 128" style="enable-background:new 0 0 128 128;" xml:space="preserve">
<style type="text/css">
	.st0{fill:#8993BE;}
	.st1{fill:#232531;}
</style>
<g>
	<ellipse class="st0" cx="64" cy="62.7" rx="64" ry="33.3"/>
	<g>
		<path class="st1" d="M99.9,46.9H83.7l-7,35.5H85l1.8-9.2h7.9c7.5,0.4,15.8-5.7,15.8-16.2C110.5,50.8,107,47.3,99.9,46.9z
			 M93.8,66.6h-5.3h0l2.2-13.2h5.7c3.1,0,5.3,1.3,5.3,3.9C101.3,64.9,97.8,66.2,93.8,66.6z"/>
		<path class="st1" d="M41.2,46.9H25l-7,35.5h8.3l1.8-9.2h7.9c7.5,0.4,15.8-5.7,15.8-16.2C51.7,50.8,48.2,47.3,41.2,46.9z
			 M35.1,66.6h-5.3h0L32,53.5h5.7c3.1,0,5.3,1.3,5.3,3.9C42.5,64.9,39,66.2,35.1,66.6z"/>
		<path class="st1" d="M68.5,73.2h8.8l3.1-18c0.9-4.4-1.8-7.9-8.8-8.3h-7.9l1.8-9.2h-8.3l-7,35.5h8.3l3.9-19.7h6.6
			c3.1,0,3.1,1.3,2.6,3.5L68.5,73.2z"/>
	</g>
</g>
</svg>
