<?xml version="1.0" encoding="utf-8"?>
<!-- Generator: Adobe Illustrator 22.0.1, SVG Export Plug-In . SVG Version: 6.00 Build 0)  -->
<svg version="1.1" id="Layer_1" xmlns="http://www.w3.org/2000/svg" xmlns:xlink="http://www.w3.org/1999/xlink" x="0px" y="0px"
	 viewBox="0 0 128 128" style="enable-background:new 0 0 128 128;" xml:space="preserve">
<style type="text/css">
	.st0{fill:#912626;}
	.st1{fill:#C6302B;}
	.st2{fill:#FFFFFF;}
	.st3{fill:#621B1C;}
	.st4{fill:#9A2928;}
</style>
<path class="st0" d="M123,92.8c-6.8,3.6-42.2,18.1-49.8,22c-7.5,3.9-11.7,3.9-17.7,1c-6-2.8-43.6-18.1-50.4-21.3
	C1.8,93,0,91.6,0,90.3V77.4c0,0,49-10.7,56.9-13.5c7.9-2.8,10.7-2.9,17.4-0.5c6.7,2.5,47,9.7,53.7,12.2l0,12.8
	C128,89.6,126.5,91,123,92.8"/>
<path class="st1" d="M123,80c-6.8,3.6-42.2,18.1-49.7,22c-7.5,3.9-11.7,3.9-17.7,1C49.6,100.2,12,85,5.2,81.8
	c-6.8-3.2-6.9-5.5-0.3-8.1c6.7-2.6,44.1-17.3,52-20.1c7.9-2.8,10.7-2.9,17.4-0.5c6.7,2.5,41.9,16.5,48.6,18.9
	C129.6,74.4,129.8,76.4,123,80"/>
<path class="st0" d="M123,71.9c-6.8,3.6-42.2,18.1-49.8,22c-7.5,3.9-11.7,3.9-17.7,1c-6-2.8-43.6-18.1-50.4-21.3
	c-3.4-1.6-5.2-3-5.2-4.3V56.5c0,0,49-10.7,56.9-13.5c7.9-2.8,10.7-2.9,17.4-0.5c6.7,2.5,47,9.7,53.7,12.2l0,12.8
	C128,68.7,126.5,70.1,123,71.9"/>
<path class="st1" d="M123,59c-6.8,3.6-42.2,18.1-49.7,22c-7.5,3.9-11.7,3.9-17.7,1c-6-2.8-43.6-18.1-50.4-21.3
	c-6.8-3.2-6.9-5.5-0.3-8.1c6.7-2.6,44.1-17.3,52-20.1c7.9-2.8,10.7-2.9,17.4-0.5c6.7,2.5,41.9,16.5,48.6,18.9
	C129.6,53.5,129.8,55.5,123,59"/>
<path class="st0" d="M123,50.2c-6.8,3.6-42.2,18.1-49.8,22c-7.5,3.9-11.7,3.9-17.7,1C49.6,70.4,12,55.2,5.2,52C1.8,50.4,0,49,0,47.7
	V34.8c0,0,49-10.7,56.9-13.5c7.9-2.8,10.7-2.9,17.4-0.5c6.7,2.5,47,9.7,53.7,12.2l0,12.8C128,47,126.5,48.4,123,50.2"/>
<path class="st1" d="M123,37.3c-6.8,3.6-42.2,18.1-49.7,22c-7.5,3.9-11.7,3.9-17.7,1c-6-2.8-43.6-18.1-50.4-21.3
	c-6.8-3.2-6.9-5.5-0.3-8.1c6.7-2.6,44.1-17.3,52-20.1c7.9-2.8,10.7-2.9,17.4-0.5c6.7,2.5,41.9,16.5,48.6,18.9
	C129.6,31.8,129.8,33.8,123,37.3"/>
<path class="st2" d="M79.6,24.7l-11,1.1l-2.5,5.9l-4-6.6l-12.7-1.1l9.5-3.4l-2.8-5.2l8.9,3.5l8.4-2.7l-2.3,5.4L79.6,24.7 M65.5,53.5
	L45,45l29.4-4.5L65.5,53.5 M37,28c8.7,0,15.7,2.7,15.7,6.1c0,3.4-7,6.1-15.7,6.1s-15.7-2.7-15.7-6.1C21.3,30.8,28.4,28,37,28"/>
<path class="st3" d="M92.6,26.4l17.4,6.9l-17.4,6.9L92.6,26.4"/>
<path class="st4" d="M73.4,34l19.3-7.6l0,13.8l-1.9,0.7L73.4,34"/>
</svg>
