<?xml version="1.0" encoding="utf-8"?>
<!-- Generator: Adobe Illustrator 22.0.1, SVG Export Plug-In . SVG Version: 6.00 Build 0)  -->
<svg version="1.1" id="Layer_1" xmlns="http://www.w3.org/2000/svg" xmlns:xlink="http://www.w3.org/1999/xlink" x="0px" y="0px"
	 viewBox="0 0 128 128" style="enable-background:new 0 0 128 128;" xml:space="preserve">
<style type="text/css">
	.st0{fill:#FFFFFF;}
</style>
<path d="M2.5,11.7h123c1.4,0,2.5,1.1,2.5,2.5v99.7c0,1.4-1.1,2.5-2.5,2.5H2.5c-1.4,0-2.5-1.1-2.5-2.5V14.2C0,12.8,1.1,11.7,2.5,11.7
	z"/>
<path class="st0" d="M14.1,22.6c-0.4-0.4-0.9-0.6-1.5-0.6s-1.1,0.2-1.6,0.6c-0.4,0.4-0.6,0.9-0.6,1.5s0.2,1.1,0.6,1.5l6.7,6.7
	L11,39.1c-0.4,0.4-0.6,1-0.7,1.6c0,0.6,0.2,1.1,0.6,1.5c0.4,0.4,0.9,0.6,1.5,0.6c0.6,0,1.1-0.2,1.6-0.6l7.5-7.5
	c1.6-1.6,1.6-3.1,0-4.7L14.1,22.6z M43.4,39.1c-0.4-0.4-1-0.6-1.6-0.6v0H27.4v0c-0.6,0-1.1,0.2-1.6,0.6c-0.4,0.4-0.6,1-0.6,1.6
	s0.2,1.1,0.6,1.6c0.4,0.4,1,0.6,1.6,0.6v0h14.4v0c0.6,0,1.1-0.2,1.6-0.6c0.4-0.4,0.6-1,0.6-1.6S43.8,39.5,43.4,39.1L43.4,39.1z"/>
</svg>
