<?xml version="1.0" encoding="utf-8"?>
<!-- Generator: Adobe Illustrator 22.0.1, SVG Export Plug-In . SVG Version: 6.00 Build 0)  -->
<svg version="1.1" id="Layer_1" xmlns="http://www.w3.org/2000/svg" xmlns:xlink="http://www.w3.org/1999/xlink" x="0px" y="0px"
	 viewBox="0 0 128 128" style="enable-background:new 0 0 128 128;" xml:space="preserve">
<style type="text/css">
	.st0{fill:#FFFFFF;}
	.st1{fill:#8ED6FB;}
	.st2{fill:#1C78C0;}
</style>
<title>icon-square-big</title>
<path class="st0" d="M63.3,0l56.6,32v64l-56.6,32L6.8,96V32L63.3,0z"/>
<path class="st1" d="M109.8,93.8L65.2,119V99.4L93,84.1L109.8,93.8z M112.8,91V38.3l-16.3,9.4v33.9L112.8,91L112.8,91z M16.7,93.8
	L61.3,119V99.4L33.5,84.1L16.7,93.8L16.7,93.8z M13.6,91V38.3l16.3,9.4v33.9L13.6,91L13.6,91z M15.5,34.9L61.3,9v19L32,44.1
	l-0.2,0.1L15.5,34.9z M110.9,34.9L65.2,9v19l29.3,16.1l0.2,0.1L110.9,34.9z"/>
<path class="st2" d="M61.3,94.9L33.9,79.8V50l27.4,15.8V94.9L61.3,94.9z M65.2,94.9l27.4-15.1V50L65.2,65.8V94.9L65.2,94.9z
	 M35.7,46.5l27.5-15.1l27.5,15.1L63.2,62.4L35.7,46.5z"/>
</svg>
